<svg id="visual" viewBox="0 0 900 600" width="900" height="600" xmlns="http://www.w3.org/2000/svg" xmlns:xlink="http://www.w3.org/1999/xlink" version="1.1"><rect x="0" y="0" width="900" height="600" fill="#001220"></rect><path d="M0 407L21.5 415.7C43 424.3 86 441.7 128.8 434.7C171.7 427.7 214.3 396.3 257.2 382.8C300 369.3 343 373.7 385.8 384.5C428.7 395.3 471.3 412.7 514.2 417.5C557 422.3 600 414.7 642.8 411.2C685.7 407.7 728.3 408.3 771.2 413.2C814 418 857 427 878.5 431.5L900 436L900 601L878.5 601C857 601 814 601 771.2 601C728.3 601 685.7 601 642.8 601C600 601 557 601 514.2 601C471.3 601 428.7 601 385.8 601C343 601 300 601 257.2 601C214.3 601 171.7 601 128.8 601C86 601 43 601 21.5 601L0 601Z" fill="#6630a9"></path><path d="M0 405L21.5 411.5C43 418 86 431 128.8 432.2C171.7 433.3 214.3 422.7 257.2 422.8C300 423 343 434 385.8 435.3C428.7 436.7 471.3 428.3 514.2 428.5C557 428.7 600 437.3 642.8 441.8C685.7 446.3 728.3 446.7 771.2 452.7C814 458.7 857 470.3 878.5 476.2L900 482L900 601L878.5 601C857 601 814 601 771.2 601C728.3 601 685.7 601 642.8 601C600 601 557 601 514.2 601C471.3 601 428.7 601 385.8 601C343 601 300 601 257.2 601C214.3 601 171.7 601 128.8 601C86 601 43 601 21.5 601L0 601Z" fill="#8c249b"></path><path d="M0 471L21.5 480.3C43 489.7 86 508.3 128.8 513.2C171.7 518 214.3 509 257.2 496.5C300 484 343 468 385.8 464.3C428.7 460.7 471.3 469.3 514.2 470.2C557 471 600 464 642.8 460.7C685.7 457.3 728.3 457.7 771.2 464.2C814 470.7 857 483.3 878.5 489.7L900 496L900 601L878.5 601C857 601 814 601 771.2 601C728.3 601 685.7 601 642.8 601C600 601 557 601 514.2 601C471.3 601 428.7 601 385.8 601C343 601 300 601 257.2 601C214.3 601 171.7 601 128.8 601C86 601 43 601 21.5 601L0 601Z" fill="#a6198a"></path><path d="M0 549L21.5 547.3C43 545.7 86 542.3 128.8 538C171.7 533.7 214.3 528.3 257.2 529.5C300 530.7 343 538.3 385.8 531.8C428.7 525.3 471.3 504.7 514.2 496.2C557 487.7 600 491.3 642.8 496.8C685.7 502.3 728.3 509.7 771.2 519.5C814 529.3 857 541.7 878.5 547.8L900 554L900 601L878.5 601C857 601 814 601 771.2 601C728.3 601 685.7 601 642.8 601C600 601 557 601 514.2 601C471.3 601 428.7 601 385.8 601C343 601 300 601 257.2 601C214.3 601 171.7 601 128.8 601C86 601 43 601 21.5 601L0 601Z" fill="#b91779"></path><path d="M0 573L21.5 570.5C43 568 86 563 128.8 562C171.7 561 214.3 564 257.2 565.3C300 566.7 343 566.3 385.8 567.2C428.7 568 471.3 570 514.2 571.3C557 572.7 600 573.3 642.8 569.5C685.7 565.7 728.3 557.3 771.2 551.7C814 546 857 543 878.5 541.5L900 540L900 601L878.5 601C857 601 814 601 771.2 601C728.3 601 685.7 601 642.8 601C600 601 557 601 514.2 601C471.3 601 428.7 601 385.8 601C343 601 300 601 257.2 601C214.3 601 171.7 601 128.8 601C86 601 43 601 21.5 601L0 601Z" fill="#c62368"></path></svg>