<svg id="wave" style="transform:rotate(0deg); transition: 0.3s" viewBox="0 0 1440 310" version="1.1" xmlns="http://www.w3.org/2000/svg"><defs><linearGradient id="sw-gradient-0" x1="0" x2="0" y1="1" y2="0"><stop stop-color="rgba(158, 53, 131, 1)" offset="0%"></stop><stop stop-color="rgba(92, 48, 176, 1)" offset="100%"></stop></linearGradient></defs><path style="transform:translate(0, 0px); opacity:1" fill="url(#sw-gradient-0)" d="M0,186L14.1,196.3C28.2,207,56,227,85,196.3C112.9,165,141,83,169,77.5C197.6,72,226,145,254,155C282.4,165,311,114,339,113.7C367.1,114,395,165,424,160.2C451.8,155,480,93,508,67.2C536.5,41,565,52,593,56.8C621.2,62,649,62,678,56.8C705.9,52,734,41,762,62C790.6,83,819,134,847,134.3C875.3,134,904,83,932,62C960,41,988,52,1016,82.7C1044.7,114,1073,165,1101,160.2C1129.4,155,1158,93,1186,98.2C1214.1,103,1242,176,1271,186C1298.8,196,1327,145,1355,118.8C1383.5,93,1412,93,1440,93C1468.2,93,1496,93,1525,77.5C1552.9,62,1581,31,1609,25.8C1637.6,21,1666,41,1694,41.3C1722.4,41,1751,21,1779,20.7C1807.1,21,1835,41,1864,72.3C1891.8,103,1920,145,1948,149.8C1976.5,155,2005,124,2019,108.5L2032.9,93L2032.9,310L2018.8,310C2004.7,310,1976,310,1948,310C1920,310,1892,310,1864,310C1835.3,310,1807,310,1779,310C1750.6,310,1722,310,1694,310C1665.9,310,1638,310,1609,310C1581.2,310,1553,310,1525,310C1496.5,310,1468,310,1440,310C1411.8,310,1384,310,1355,310C1327.1,310,1299,310,1271,310C1242.4,310,1214,310,1186,310C1157.6,310,1129,310,1101,310C1072.9,310,1045,310,1016,310C988.2,310,960,310,932,310C903.5,310,875,310,847,310C818.8,310,791,310,762,310C734.1,310,706,310,678,310C649.4,310,621,310,593,310C564.7,310,536,310,508,310C480,310,452,310,424,310C395.3,310,367,310,339,310C310.6,310,282,310,254,310C225.9,310,198,310,169,310C141.2,310,113,310,85,310C56.5,310,28,310,14,310L0,310Z"></path></svg>